# xmcd
#
# Track frame offsets:
#	150
#	14540
#	28245
#	41253
#	54125
#	65965
#	77870
#	92725
#	100913
#	113068
#	123880
#	137950
#	158198
#	169410
#
# Disc length: 2439 seconds
# Revision: 4
# Processed by: cddbd v1.5.2PL0 Copyright (c) Steve Scherf et al.
# Submitted via: dBpowerAMP V12.0
#
DISCID=bc09850e
DTITLE=Lowell Fulson - Reconsider Baby
DYEAR=1996
DGENRE=Blues
TTITLE0=Reconsider Baby
TTITLE1=Loving You (Is All I Crave)
TTITLE2=Trouble Trouble
TTITLE3=Rollin' Blues
TTITLE4=(It) Took A Long Time
TTITLE5=Don't Drive Me Baby
TTITLE6=I Want To Make Love To You
TTITLE7=Rock This Morning
TTITLE8=That's All Right
TTITLE9=Comin' Home (Someday)
TTITLE10=Have You Change Your Mind?
TTITLE11=I Want To Know, Parts 1 and 2
TTITLE12=So Many Tears
TTITLE13=Hung Down Head
EXTD=
EXTT0=
EXTT1=
EXTT2=
EXTT3=
EXTT4=
EXTT5=
EXTT6=
EXTT7=
EXTT8=
EXTT9=
EXTT10=
EXTT11=
EXTT12=
EXTT13=
PLAYORDER=
